<svg width="64" height="64" viewBox="0 0 64 64" fill="none" xmlns="http://www.w3.org/2000/svg">
<path d="M21.0307 53.8403C27.6906 46.4968 23.4345 34.9634 12.9375 34.1034C14.7017 27.5538 14.2606 20.8719 14.3268 14.168C20.9646 14.168 27.4921 14.168 34.174 14.168C34.174 14.609 34.174 15.028 34.174 15.4691C34.196 19.7252 34.174 23.9813 34.2622 28.2374C34.3945 33.7726 36.5557 38.4036 41.0323 41.7115C44.2079 44.0711 47.5819 46.1661 50.8677 48.3713C53.0729 49.8488 54.1756 51.8776 53.9771 54.5239C53.7786 57.1261 52.3893 58.9785 50.0297 60.0591C48.4199 60.8089 46.7218 60.7868 45.0679 60.2796C40.7015 58.9124 36.3572 57.479 31.9688 56.0896C28.6388 55.0532 25.3089 53.9726 21.7805 53.9726C21.5821 53.9947 21.3836 53.9065 21.0307 53.8403Z" fill="#F1F1FA"/>
<path d="M14.3926 4.24219C21.0745 4.24219 27.5579 4.24219 34.1075 4.24219C34.1075 6.40333 34.1075 8.52036 34.1075 10.7256C27.5358 10.7256 20.9863 10.7256 14.3926 10.7256C14.3926 8.56446 14.3926 6.40333 14.3926 4.24219Z" fill="#F1F1FA"/>
<path d="M10.9961 41.7082C11.1725 40.9364 11.4371 39.5471 11.8341 38.1799C11.9002 37.9152 12.3633 37.5844 12.6721 37.5624C16.002 37.2978 19.4201 39.7676 20.5448 43.1417C21.6474 46.4716 20.3904 50.5292 17.6559 52.2714C17.3692 52.4478 16.7518 52.3596 16.421 52.139C12.9147 49.8456 11.1064 46.5818 10.9961 41.7082Z" fill="#F1F1FA"/>
</svg>
