<svg width="64" height="64" viewBox="0 0 64 64" fill="none" xmlns="http://www.w3.org/2000/svg">
<path fill-rule="evenodd" clip-rule="evenodd" d="M32 57C45.8071 57 57 45.8071 57 32C57 18.1929 45.8071 7 32 7C18.1929 7 7 18.1929 7 32C7 45.8071 18.1929 57 32 57ZM47.6628 40.8683C48.414 41.9962 49.2512 42.3252 50.6046 41.9811L43.1442 32.0694C42.7163 31.5078 42.6523 31.1101 43.1174 30.5287L47.0244 25.4415L49.9081 21.6183C48.6244 21.2438 47.8558 21.6299 47.1407 22.645L41.5593 30.0869L36.0186 22.6043C35.2337 21.459 34.35 21.3322 33.0709 21.5811L40.5081 31.2671L32.5198 41.9904C33.85 42.3497 34.5977 41.9078 35.3105 40.8927L41.5488 32.4543L42.3209 33.4776L47.6628 40.8683ZM14.0581 27.8741L13.4047 31.088V31.0892C13.4047 31.6907 13.4016 32.2923 13.3953 32.8938C13.4177 33.0068 13.4425 33.1196 13.4673 33.2327C13.52 33.4724 13.5731 33.714 13.6047 33.9636C13.9 36.1869 14.5581 38.2659 16.1512 39.9066C18.8256 42.7345 23.9093 43.3927 27.4709 41.3578C29.8547 39.9985 30.9826 37.8264 31.4826 35.2264C30.5035 34.9287 29.9779 35.0915 29.6605 36.1334C29.0349 38.2125 27.7849 39.8741 25.6628 40.5869C19.6128 42.6171 14.8674 38.638 15.1163 32.045H31.6791C31.8244 28.3822 31.0942 25.1124 28.1558 22.8008C23.1279 18.8706 15.8372 21.5136 14.0581 27.8741ZM30.114 30.6462H15.1465C15.3395 25.7345 18.5372 22.4287 22.9907 22.4636C27.0477 22.4927 30.0163 25.8787 30.114 30.6462Z" fill="#F1F1FA"/>
</svg>
