<svg width="64" height="64" viewBox="0 0 64 64" fill="none" xmlns="http://www.w3.org/2000/svg">
<path d="M32.5 59.2159C31.7344 59.2159 31.0262 59.0054 30.3754 58.6608L23.6379 54.6605C22.6234 54.1054 23.1211 53.8948 23.4273 53.7991C24.8055 53.3397 25.0543 53.244 26.4707 52.421C26.6238 52.3253 26.8344 52.3636 26.9875 52.4784L32.1555 55.5792C32.366 55.6749 32.6148 55.6749 32.768 55.5792L52.9996 43.8651C53.2102 43.7694 53.3059 43.5589 53.3059 43.3101V19.9011C53.3059 19.6522 53.2102 19.4417 52.9996 19.346L32.768 7.67022C32.5574 7.57451 32.3086 7.57451 32.1555 7.67022L11.9238 19.346C11.7133 19.4417 11.6176 19.7097 11.6176 19.9011V43.2909C11.6176 43.5015 11.7133 43.7503 11.9238 43.846L17.4555 47.0425C20.4414 48.5737 22.3172 46.7937 22.3172 45.0136V21.93C22.3172 21.6237 22.566 21.3175 22.9297 21.3175H25.5137C25.8199 21.3175 26.1262 21.5663 26.1262 21.93V45.0136C26.1262 49.014 23.9441 51.3491 20.1352 51.3491C18.9676 51.3491 18.0488 51.3491 15.4648 50.0858L10.1437 47.0425C8.80391 46.2769 8 44.8605 8 43.3292V19.9394C8 18.4272 8.80391 17.0108 10.1246 16.2452L30.3754 4.53115C31.6387 3.82295 33.3613 3.82295 34.6437 4.53115L54.8754 16.2452C56.1961 17.0108 57 18.4272 57 19.9394V43.3292C57 44.8605 56.1961 46.2769 54.8754 47.0233L34.6437 58.7374C33.9738 59.0628 33.2082 59.2159 32.5 59.2159ZM38.7398 43.1378C29.8586 43.1378 28.0402 39.08 28.0402 35.6347C28.0402 35.3284 28.2891 35.0222 28.6527 35.0222H31.2941C31.6004 35.0222 31.8492 35.2327 31.8492 35.539C32.2512 38.2187 33.4187 39.5394 38.7973 39.5394C43.0656 39.5394 44.884 38.5823 44.884 36.2854C44.884 34.9647 44.3672 34.0077 37.7254 33.3378C32.1938 32.7827 28.7484 31.5577 28.7484 27.1554C28.7484 23.0401 32.1938 20.6093 37.9742 20.6093C44.4629 20.6093 47.6594 22.8487 48.0613 27.7104C48.0613 27.8636 48.0039 28.0167 47.9082 28.1698C47.8125 28.2655 47.6594 28.3804 47.5062 28.3804H44.8648C44.616 28.3804 44.348 28.1698 44.3098 27.921C43.6973 25.1265 42.1277 24.2269 37.9742 24.2269C33.3039 24.2269 32.7488 25.8538 32.7488 27.0597C32.7488 28.5335 33.3996 28.9929 39.6969 29.7968C45.9367 30.6007 48.8844 31.7683 48.8844 36.1323C48.827 40.5921 45.1902 43.1378 38.7398 43.1378Z" fill="#F1F1FA"/>
</svg>
