<svg width="64" height="64" viewBox="0 0 64 64" fill="none" xmlns="http://www.w3.org/2000/svg">
<path d="M34.0474 14.7812C29.5216 12.375 24.7802 10.625 19.7155 9.85938C17.5603 9.53125 15.4052 9.42187 13.25 9.42187C12.4957 9.42187 11.7414 9.3125 11.0948 9.20313L7.21552 8.10938L7.10776 8C7 8 7 8.10938 7 8.21875C7.53879 8.76563 7.86207 9.42188 7.96983 10.1875C8.07759 10.9531 7.96983 11.7187 7.96983 12.5937C7.64655 17.0781 8.2931 21.4531 9.58621 25.8281C11.3103 31.625 14.3276 36.6562 18.2069 41.25C19.6078 42.8906 25.5345 47.7031 27.5819 48.7969C32.9698 51.6406 38.7888 52.7344 44.7155 52.625C46.2241 52.625 47.625 52.5156 49.1336 52.2969C49.1336 52.2969 49.2414 52.4062 49.3491 52.4062C51.2888 53.3906 52.7974 54.7031 54.306 56.125L54.8448 56.6719C55.4914 57.3281 55.2759 57.2188 56.0302 56.8906C56.3534 56.7813 56.569 56.5625 57 56.4531C57.1078 56.3437 57 56.125 57 56.0156L56.0302 55.25L53.5517 52.7344C53.1207 52.2969 52.7974 51.8594 52.3664 51.3125C51.8276 50.6562 51.6121 49.7812 51.3966 49.0156C51.3966 49.0156 51.3965 49.0156 51.5043 49.0156C51.7198 47.4844 51.8276 46.0625 51.8276 44.5313C51.7198 35.125 48.2715 27.1406 41.5905 20.5781C39.3276 18.1719 36.7414 16.3125 34.0474 14.7812Z" fill="#F1F1FA"/>
</svg>
