<svg width="64" height="64" viewBox="0 0 64 64" fill="none" xmlns="http://www.w3.org/2000/svg">
<path d="M32 8C18.8 8 8 18.8 8 32C8 45.2 18.8 56 32 56C45.2 56 56 45.2 56 32C56 18.8 45.2 8 32 8ZM18.6272 45.3728C15.0272 41.7728 13.142 36.9728 13.142 32.3456L31.8272 50.858C27.0272 50.6852 22.2272 48.9716 18.6272 45.3728ZM36.1124 50.3456L13.6568 27.8852C15.542 19.4852 23.0852 13.142 32 13.142C38.3432 13.142 43.8272 16.2272 47.2568 20.8568L44.684 23.084C41.7716 19.142 37.142 16.5716 31.9988 16.5716C25.3136 16.5716 19.6556 20.8568 17.426 26.8568L37.1408 46.5716C42.1136 44.8568 45.884 40.5716 47.084 35.4284H38.8568V32H50.8568C50.8568 40.9148 44.5136 48.4568 36.1136 50.3432L36.1124 50.3456Z" fill="#F1F1FA"/>
</svg>
