<svg width="64" height="64" viewBox="0 0 64 64" fill="none" xmlns="http://www.w3.org/2000/svg">
<path d="M52.9554 8H11.0491C9.36607 8 8 9.36607 8 11.0491V52.9509C8 54.6339 9.36607 56 11.0491 56H52.9509C54.6339 56 56 54.6339 56 52.9554V11.0491C56 9.36607 54.6339 8 52.9554 8ZM34.2857 44.7813C34.2857 49.3482 31.6071 51.4286 27.6964 51.4286C24.1607 51.4286 21.6116 49.058 20.5714 46.8571L24.1652 44.683C24.8571 45.9107 25.9107 46.8571 27.4286 46.8571C28.8795 46.8571 29.7143 46.2902 29.7143 44.0848V29.7143H34.2857V44.7813ZM44.2009 51.4286C40.1518 51.4286 37.8527 49.3884 36.5714 46.8571L40 44.5714C40.933 46.0982 41.9509 47.558 44.1027 47.558C45.9107 47.558 46.8571 46.6563 46.8571 45.4063C46.8571 43.9152 45.875 43.3839 43.8884 42.5134L42.7991 42.0446C39.6518 40.7054 37.558 39.0268 37.558 35.4732C37.558 32.2054 40.0536 29.7143 43.9464 29.7143C46.7188 29.7143 48.7098 30.6786 50.1473 33.2054L46.7545 35.3884C46.0045 34.0446 45.2009 33.5179 43.9464 33.5179C42.6696 33.5179 41.8616 34.3304 41.8616 35.3884C41.8616 36.6964 42.6696 37.2232 44.5402 38.0357L45.6295 38.5045C49.3393 40.0893 51.4286 41.7098 51.4286 45.3527C51.4286 49.2768 48.3438 51.4286 44.2009 51.4286Z" fill="#F1F1FA"/>
</svg>
