<svg width="64" height="64" viewBox="0 0 64 64" fill="none" xmlns="http://www.w3.org/2000/svg">
<path d="M33.1856 61C31.7242 59.8213 30.299 58.6427 28.9639 57.5561C29.9021 55.8433 30.8943 54.2042 31.7242 52.4914C32.5541 50.7787 32.9871 48.9186 32.951 47.0216C31.634 47.4821 30.3711 48.0162 29.0541 48.4029C25.8428 49.3422 22.5593 49.5263 19.2577 49.0843C15.7397 48.6239 12.2397 48.053 8.63144 47.5189C8.93814 45.5115 9.20876 43.6514 9.47938 41.7544C13.2861 42.2149 16.9665 42.0675 20.4845 40.1338C20.0876 39.8207 19.7448 39.5628 19.4021 39.2866C16.0644 36.6898 13.6289 33.338 11.9691 29.4336C10.5438 26.0633 9.35309 22.601 8.05412 19.157C8.03608 19.0834 8.01804 19.0097 8 18.8624C9.69588 18.1809 11.4098 17.4995 13.1418 16.7997C14.6753 20.3725 16.5876 23.5771 19.9433 25.6766C20.1778 24.3506 20.3582 23.043 20.6649 21.7538C21.3866 18.6045 22.8299 15.7683 24.5979 13.1163C26.7629 9.91179 29.2345 6.94669 31.8144 4C33.2577 5.17868 34.683 6.33893 36.1443 7.53603C33.8711 10.6669 32.1211 14.0003 32.0129 18.0336C33.0593 17.6284 34.0335 17.2233 35.0438 16.8733C37.9845 15.8788 41.0155 15.6026 44.1005 15.7683C48.1057 15.9893 52.0206 16.7444 55.9356 17.5363C56.0438 17.5548 56.1521 17.5916 56.3325 17.6468C56.0619 19.4885 55.7732 21.3486 55.5026 23.1719C53.5902 23.1719 51.7139 23.0798 49.8557 23.1903C47.9794 23.3008 46.1933 23.8533 44.5155 24.8662C45.2732 25.4924 46.0129 26.0817 46.7165 26.6895C49.5129 29.1205 51.5696 32.1593 53.0129 35.5664C54.4381 38.9183 55.6108 42.3806 56.9098 45.7877C56.9459 45.8798 56.9639 45.9903 57 46.1376C55.2861 46.8191 53.5902 47.5005 51.8402 48.2003C50.3067 44.6275 48.3943 41.4229 45.0206 39.3234C44.8222 40.5389 44.6778 41.6808 44.4253 42.8042C43.6675 46.3586 42.116 49.5447 39.9871 52.4178C37.8943 55.2355 35.6572 57.9244 33.4742 60.6685C33.384 60.779 33.2938 60.8711 33.1856 61ZM39.8789 32.5092C39.8969 28.347 36.6134 24.9767 32.482 24.9583C28.4948 24.9399 25.1392 28.347 25.1211 32.454C25.1031 36.6346 28.4046 40.0233 32.5361 40.0601C36.5593 40.0785 39.8428 36.6898 39.8789 32.5092Z" fill="#F1F1FA"/>
</svg>
