<svg width="64" height="64" viewBox="0 0 64 64" fill="none" xmlns="http://www.w3.org/2000/svg">
<path fill-rule="evenodd" clip-rule="evenodd" d="M60 32C60 47.464 47.464 60 32 60C16.536 60 4 47.464 4 32C4 16.536 16.536 4 32 4C47.464 4 60 16.536 60 32ZM37.689 36.6744L40.2265 28.6769H40.209C41.329 25.6494 43.534 22.7969 47.734 22.7969L41.784 37.2519C41.2673 38.8897 40.2424 40.3205 38.858 41.3368C37.4735 42.3531 35.8014 42.9022 34.084 42.9044C34.084 42.9044 32.334 30.4794 32.334 30.1994L29.709 37.0244C28.5365 40.0519 26.2615 42.9044 22.0615 42.9044L18.7715 22.8144C20.3729 22.8545 21.9039 23.4805 23.0747 24.5739C24.2454 25.6672 24.9746 27.152 25.124 28.7469C25.124 28.7469 25.5615 36.1144 25.5615 36.6919L28.659 28.6769C29.779 25.6494 31.914 22.7969 35.939 22.7969C35.939 22.7969 37.689 36.0619 37.689 36.6744Z" fill="#F1F1FA"/>
</svg>
