<svg width="64" height="64" viewBox="0 0 64 64" fill="none" xmlns="http://www.w3.org/2000/svg">
<path d="M33.4278 25C32.0439 25.0024 30.6917 25.4149 29.5421 26.1856C28.3925 26.9562 27.4972 28.0503 26.9692 29.3295C26.4413 30.6088 26.3044 32.0159 26.5758 33.373C26.8473 34.7301 27.5149 35.9762 28.4943 36.954C29.4738 37.9317 30.7211 38.5972 32.0786 38.8664C33.4362 39.1355 34.843 38.9962 36.1214 38.466C37.3998 37.9358 38.4923 37.0386 39.261 35.8877C40.0296 34.7369 40.4398 33.384 40.4398 32C40.4391 31.0799 40.2572 30.169 39.9044 29.3193C39.5516 28.4695 39.0349 27.6976 38.3837 27.0476C37.7326 26.3976 36.9598 25.8822 36.1094 25.5309C35.2591 25.1795 34.3479 24.9991 33.4278 25V25ZM33.4278 36.2C32.5975 36.1985 31.7862 35.9509 31.0965 35.4885C30.4068 35.026 29.8697 34.3696 29.553 33.602C29.2363 32.8344 29.1542 31.9902 29.3171 31.1759C29.48 30.3617 29.8806 29.6141 30.4683 29.0275C31.056 28.4408 31.8044 28.0416 32.6189 27.8802C33.4334 27.7187 34.2775 27.8023 35.0445 28.1204C35.8115 28.4386 36.467 28.9769 36.9282 29.6674C37.3893 30.3579 37.6355 31.1696 37.6355 32C37.6334 33.1146 37.1892 34.1829 36.4004 34.9703C35.6115 35.7577 34.5424 36.2 33.4278 36.2ZM55.1234 32C59.5619 26.4798 61.2648 21.0056 59.0828 17.2344C58.3555 15.9755 57.2486 14.9955 55.8366 14.2878C55.9591 13.2149 55.6644 12.136 55.0134 11.2744C54.3624 10.4128 53.405 9.83458 52.3394 9.65945C51.2738 9.48431 50.1817 9.72568 49.2892 10.3336C48.3967 10.9415 47.7721 11.8693 47.5448 12.925C46.3143 12.9883 45.0884 13.1219 43.8731 13.3253C41.3061 7.59953 37.5775 4 33.4278 4C29.2781 4 25.5528 7.59953 22.9825 13.3198C21.3473 13.0401 19.6921 12.8938 18.0333 12.8823C13.188 12.8823 9.45937 14.3042 7.77281 17.2245C7.11656 18.3577 6.81468 19.6439 6.82781 21.0384C5.77453 21.4031 4.90923 22.1712 4.42228 23.1738C3.93533 24.1764 3.86661 25.3314 4.23125 26.3847C4.59588 27.438 5.36399 28.3033 6.36661 28.7902C7.36922 29.2772 8.52421 29.3459 9.5775 28.9812C10.2354 30.0295 10.9552 31.0376 11.7333 32C7.29484 37.5202 5.59187 42.9944 7.7739 46.7656C9.46046 49.6859 13.1891 51.1078 18.0344 51.1078C19.6929 51.0963 21.3477 50.95 22.9825 50.6703C25.5495 56.3906 29.2781 59.9913 33.4278 59.9913C35.7936 59.9913 38.0216 58.8198 39.9761 56.7559C40.7827 57.1536 41.6957 57.282 42.5808 57.1221C43.4658 56.9622 44.2762 56.5225 44.8926 55.8677C45.5091 55.2129 45.8992 54.3775 46.0055 53.4844C46.1118 52.5914 45.9287 51.6878 45.4831 50.9066C46.5898 51.0397 47.7033 51.1083 48.818 51.1122C53.6633 51.1122 57.3919 49.6903 59.0784 46.77C61.2659 42.9944 59.563 37.5191 55.1234 32ZM43.6511 21.8533C42.6164 21.1715 41.5442 20.5109 40.4344 19.8714C39.2852 19.2071 38.1353 18.5921 36.9847 18.0263C38.6745 17.4155 40.3995 16.9071 42.1505 16.5037C42.7798 18.2482 43.2813 20.0361 43.6511 21.8533V21.8533ZM33.4278 6.8C36.0933 6.8 38.9108 9.41078 41.0556 13.8908C38.451 14.5267 35.9008 15.3679 33.4289 16.4064C30.9567 15.3678 28.4061 14.5266 25.8011 13.8908C27.9459 9.41078 30.7634 6.8 33.4278 6.8ZM24.7019 16.5037C26.4528 16.9071 28.1779 17.4155 29.8677 18.0263C28.7185 18.5957 27.5686 19.2108 26.418 19.8714C25.3089 20.5102 24.2367 21.1711 23.2012 21.8544C23.5709 20.0368 24.0725 18.2485 24.7019 16.5037V16.5037ZM8.23656 26.4C7.95976 26.3996 7.6893 26.3171 7.45936 26.163C7.22942 26.0089 7.05032 25.7901 6.94469 25.5342C6.83906 25.2784 6.81165 24.997 6.86591 24.7255C6.92018 24.4541 7.05369 24.2049 7.24957 24.0093C7.44545 23.8137 7.69491 23.6806 7.96642 23.6267C8.23794 23.5729 8.51932 23.6008 8.77501 23.7068C9.0307 23.8128 9.24922 23.9922 9.40295 24.2224C9.55669 24.4526 9.63875 24.7232 9.63875 25C9.63788 25.3714 9.4898 25.7273 9.22696 25.9898C8.96413 26.2522 8.60797 26.3997 8.23656 26.4V26.4ZM18.03 48.3122C15.7397 48.3122 11.6775 47.9305 10.1987 45.3711C8.92234 43.1562 9.81046 39.5469 12.64 35.4617C12.9433 35.0242 13.2642 34.5867 13.6025 34.1492C15.5578 36.226 17.6863 38.1327 19.9648 39.8488C20.3575 42.6257 21.0138 45.3589 21.9248 48.0114C20.6354 48.2046 19.3338 48.3051 18.03 48.3122V48.3122ZM19.5437 35.9375C18.0862 34.7152 16.7092 33.4 15.4214 32C16.7092 30.6 18.0862 29.2848 19.5437 28.0625C19.4533 29.3495 19.407 30.662 19.4048 32C19.4027 33.338 19.449 34.6505 19.5437 35.9375ZM19.9648 24.1469C17.6862 25.8632 15.5578 27.7703 13.6025 29.8475C13.2642 29.41 12.9433 28.9725 12.64 28.535C12.3367 28.0975 12.0552 27.6655 11.7956 27.2389C12.1327 26.705 12.345 26.1019 12.4166 25.4745C12.4882 24.8472 12.4173 24.2117 12.2091 23.6156C12.0009 23.0195 11.6609 22.478 11.2143 22.0316C10.7678 21.5852 10.2262 21.2453 9.63 21.0373C9.62125 20.1208 9.80828 19.3081 10.202 18.6311C11.6797 16.0728 15.743 15.69 18.0333 15.69C19.3359 15.6961 20.6364 15.7956 21.9248 15.9875C21.014 18.6389 20.3577 21.371 19.9648 24.1469V24.1469ZM23.2045 42.1445C24.2392 42.8263 25.3118 43.4873 26.4223 44.1275C27.5715 44.7889 28.7214 45.4039 29.872 45.9727C28.1808 46.5836 26.4543 47.092 24.7019 47.4952C24.0736 45.7503 23.5732 43.962 23.2045 42.1445V42.1445ZM37.6355 53C37.635 53.6042 37.7656 54.2012 38.0183 54.75C36.5417 56.3348 34.9558 57.1989 33.4245 57.1989C30.7591 57.1989 27.9416 54.587 25.7967 50.1059C28.4017 49.4701 30.9523 48.6289 33.4245 47.5903C35.3413 48.3915 37.3041 49.0782 39.3023 49.6466C38.7835 50.038 38.3627 50.5447 38.0734 51.1267C37.7841 51.7087 37.6342 52.3501 37.6355 53ZM41.842 54.4C41.5652 54.3996 41.2948 54.3171 41.0648 54.163C40.8349 54.0089 40.6558 53.7901 40.5502 53.5342C40.4445 53.2784 40.4171 52.997 40.4714 52.7255C40.5257 52.4541 40.6592 52.2049 40.855 52.0093C41.0509 51.8137 41.3004 51.6806 41.5719 51.6267C41.8434 51.5729 42.1248 51.6008 42.3805 51.7068C42.6362 51.8128 42.8547 51.9922 43.0084 52.2224C43.1622 52.4526 43.2442 52.7232 43.2442 53C43.2433 53.3714 43.0953 53.7273 42.8324 53.9898C42.5696 54.2522 42.2134 54.3997 41.842 54.4V54.4ZM42.1505 47.4952C40.3995 47.0918 38.6745 46.5834 36.9847 45.9727C38.1339 45.4032 39.2837 44.7881 40.4344 44.1275C41.5434 43.4888 42.6157 42.8278 43.6511 42.1445C43.2814 43.9621 42.7798 45.7504 42.1505 47.4952V47.4952ZM44.2745 38.3077C42.5881 39.5289 40.8386 40.6607 39.0333 41.6983C37.2163 42.7446 35.3452 43.6938 33.4278 44.542C31.5104 43.6938 29.6393 42.7446 27.8223 41.6983C26.0171 40.6607 24.2676 39.5289 22.5811 38.3077C22.0846 34.1143 22.0846 29.877 22.5811 25.6836C25.9702 23.2341 29.6054 21.1447 33.4278 19.4492C37.2499 21.1448 40.8847 23.2342 44.2734 25.6836C44.5242 27.7797 44.6487 29.889 44.6464 32C44.6489 34.1096 44.5247 36.2174 44.2745 38.312V38.3077ZM51.6584 12.4C51.9352 12.4004 52.2057 12.4829 52.4356 12.637C52.6656 12.7911 52.8447 13.0099 52.9503 13.2658C53.0559 13.5216 53.0833 13.803 53.0291 14.0745C52.9748 14.3459 52.8413 14.5951 52.6454 14.7907C52.4495 14.9863 52.2001 15.1194 51.9286 15.1733C51.6571 15.2271 51.3757 15.1992 51.12 15.0932C50.8643 14.9872 50.6458 14.8078 50.492 14.5776C50.3383 14.3474 50.2562 14.0768 50.2562 13.8C50.2571 13.4286 50.4052 13.0727 50.668 12.8102C50.9309 12.5478 51.287 12.4003 51.6584 12.4V12.4ZM47.9102 15.7031C48.2103 16.2918 48.6448 16.8016 49.1785 17.1913C49.7122 17.5809 50.3301 17.8394 50.9823 17.9459C51.6345 18.0524 52.3025 18.0039 52.9325 17.8043C53.5624 17.6046 54.1365 17.2595 54.6083 16.7969C55.457 17.2278 56.1855 17.8195 56.6547 18.63C57.9355 20.847 57.0473 24.4586 54.2178 28.5394C53.9145 28.9769 53.5936 29.4144 53.2553 29.8519C51.2997 27.7746 49.1709 25.8675 46.8919 24.1513C46.5009 21.3733 45.8461 18.639 44.9362 15.9853C45.9219 15.8392 46.9146 15.745 47.9102 15.7031V15.7031ZM47.313 28.0625C48.7705 29.2848 50.1475 30.6 51.4353 32C50.1475 33.4 48.7705 34.7152 47.313 35.9375C47.4056 34.6505 47.4519 33.338 47.4519 32C47.4519 30.662 47.4056 29.3495 47.313 28.0625ZM56.6547 45.3722C55.177 47.9305 51.1137 48.3133 48.8234 48.3133C47.5222 48.3062 46.2232 48.2061 44.9362 48.0136C45.8473 45.3615 46.5036 42.6286 46.8962 39.852C49.1752 38.1357 51.3041 36.2287 53.2597 34.1514C53.598 34.5889 53.9189 35.0264 54.2222 35.4639C57.0473 39.5469 57.9355 43.1562 56.6547 45.3711V45.3722Z" fill="#F1F1FA"/>
</svg>
