<svg width="64" height="64" viewBox="0 0 64 64" fill="none" xmlns="http://www.w3.org/2000/svg">
<path d="M32 32.5C32 30.2457 32.8955 28.0837 34.4896 26.4896C36.0837 24.8955 38.2457 24 40.5 24C42.7543 24 44.9163 24.8955 46.5104 26.4896C48.1045 28.0837 49 30.2457 49 32.5C49 34.7543 48.1045 36.9163 46.5104 38.5104C44.9163 40.1045 42.7543 41 40.5 41C38.2457 41 36.0837 40.1045 34.4896 38.5104C32.8955 36.9163 32 34.7543 32 32.5V32.5Z" stroke="#F1F1FA" stroke-width="3"/>
<path d="M15 49.5C15 47.2457 15.8955 45.0837 17.4896 43.4896C19.0837 41.8955 21.2457 41 23.5 41H32V49.5C32 51.7543 31.1045 53.9163 29.5104 55.5104C27.9163 57.1045 25.7543 58 23.5 58C21.2457 58 19.0837 57.1045 17.4896 55.5104C15.8955 53.9163 15 51.7543 15 49.5Z" stroke="#F1F1FA" stroke-width="3"/>
<path d="M32 7V24H40.5C42.7543 24 44.9163 23.1045 46.5104 21.5104C48.1045 19.9163 49 17.7543 49 15.5C49 13.2457 48.1045 11.0837 46.5104 9.48959C44.9163 7.89553 42.7543 7 40.5 7L32 7Z" stroke="#F1F1FA" stroke-width="3"/>
<path d="M15 15.5C15 17.7543 15.8955 19.9163 17.4896 21.5104C19.0837 23.1045 21.2457 24 23.5 24H32V7H23.5C21.2457 7 19.0837 7.89553 17.4896 9.48959C15.8955 11.0837 15 13.2457 15 15.5Z" stroke="#F1F1FA" stroke-width="3"/>
<path d="M15 32.5C15 34.7543 15.8955 36.9163 17.4896 38.5104C19.0837 40.1045 21.2457 41 23.5 41H32V24H23.5C21.2457 24 19.0837 24.8955 17.4896 26.4896C15.8955 28.0837 15 30.2457 15 32.5Z" stroke="#F1F1FA" stroke-width="3"/>
</svg>
