<svg width="64" height="64" viewBox="0 0 64 64" fill="none" xmlns="http://www.w3.org/2000/svg">
<path fill-rule="evenodd" clip-rule="evenodd" d="M48.1469 7.83594H15.8531C10.9602 7.83594 7 11.8038 7 16.7061V47.8118C7 52.7189 10.9602 56.682 15.8531 56.682H48.1469C53.0446 56.682 57 52.7141 57 47.8118V16.7061C57.0048 11.8038 53.0446 7.83594 48.1469 7.83594ZM33.4827 42.3008H29.1303C28.9868 42.32 28.8385 42.2194 28.7955 42.0708L27.088 37.063H19.3398L17.7566 41.9893C17.7136 42.1762 17.5462 42.3008 17.3597 42.2817H13.4425C13.2129 42.2817 13.1508 42.1571 13.2129 41.9079L19.9233 22.6388C19.9855 22.4279 20.0476 22.241 20.1337 21.9918C20.215 21.5558 20.2581 21.0957 20.2581 20.6357C20.2389 20.5302 20.3203 20.4248 20.4255 20.4057H20.4877H25.8205C25.964 20.4057 26.0693 20.4679 26.0932 20.5734L33.6979 41.9702C33.7505 42.1954 33.6883 42.3008 33.4827 42.3008ZM49.8353 33.9721C49.8083 34.2216 49.7907 34.4296 49.7766 34.5961V34.5961C49.7682 34.6951 49.7611 34.7794 49.754 34.8491C49.7348 34.9976 49.6105 35.1222 49.4622 35.1222C49.3632 35.1222 49.1974 35.1344 48.9649 35.1514L48.9647 35.1515L48.7735 35.1654C48.4387 35.2085 48.0465 35.2277 47.5634 35.2277C47.3316 35.2277 47.0941 35.2085 46.8494 35.1888L46.8494 35.1888C46.5892 35.1678 46.3209 35.1462 46.0425 35.1462H39.4421C39.5234 35.7931 39.7339 36.4401 40.0878 37.0055C40.4609 37.571 40.9822 38.0071 41.6088 38.2563C42.441 38.6109 43.3593 38.7978 44.2776 38.7786C45.0046 38.7595 45.7364 38.6972 46.4442 38.5486C47.0899 38.4671 47.7165 38.2994 48.3 38.0694C48.4052 37.9879 48.4674 38.0263 48.4674 38.2371V41.4334C48.4674 41.5149 48.4482 41.6012 48.4243 41.6826C48.3813 41.7449 48.343 41.7881 48.2761 41.8312C47.6112 42.1235 46.9225 42.3344 46.1907 42.459C45.2102 42.6459 44.2345 42.7321 43.2301 42.7082C41.647 42.7082 40.3126 42.459 39.2317 41.9798C38.2081 41.5437 37.3137 40.8536 36.6059 39.9958C35.9411 39.1812 35.458 38.2611 35.1662 37.2595C34.8745 36.2771 34.731 35.2564 34.731 34.2117C34.731 33.0856 34.8984 31.9786 35.2523 30.8908C35.5871 29.8461 36.1085 28.8877 36.8163 28.0299C37.5051 27.1961 38.3564 26.5252 39.3369 26.046C40.3174 25.5668 41.4844 25.399 42.814 25.399C43.9189 25.3799 45.0237 25.5859 46.0425 26.046C46.8986 26.4198 47.6447 26.9852 48.2282 27.7136C48.7687 28.4229 49.2087 29.2184 49.4766 30.0953C49.7492 30.9291 49.8735 31.7869 49.8735 32.6399C49.8783 33.1383 49.8592 33.5744 49.8353 33.9721ZM42.6695 29.0038C41.5216 28.9415 40.4407 29.5453 39.9002 30.59C39.6515 31.0692 39.5032 31.5724 39.441 32.0947H43.8365C44.377 32.0947 44.7739 32.0947 45.0226 32.0756C45.19 32.0564 45.3574 32.0133 45.5009 31.9078V31.697C45.5009 31.4238 45.4579 31.1747 45.3766 30.9255C45.0035 29.7562 43.8987 28.9607 42.6695 29.0038ZM24.4446 28.5031C24.5583 28.8708 24.6717 29.2375 24.793 29.6106C24.9796 30.2336 25.1709 30.8422 25.3526 31.4029C25.5392 31.9492 25.7066 32.4715 25.8309 32.9076H20.5411C20.8567 32.0306 21.1868 31.0483 21.4594 29.9844C21.6669 29.3275 21.8688 28.6705 22.0673 28.0243C22.1845 27.6429 22.3006 27.2652 22.416 26.8935C22.7077 25.9974 22.9373 25.0965 23.1238 24.2003H23.1669C23.2504 24.4838 23.3324 24.7794 23.418 25.088C23.4844 25.3273 23.5529 25.5744 23.626 25.8296C23.7934 26.4382 23.98 27.0421 24.1904 27.689C24.2775 27.9628 24.3611 28.2333 24.4446 28.5031Z" fill="#F1F1FA"/>
</svg>
