<svg width="64" height="64" viewBox="0 0 64 64" fill="none" xmlns="http://www.w3.org/2000/svg">
<path d="M56.6792 24.706C54.8872 15.9056 48.114 9.096 39.2772 7.3012C37.4824 5.2908 34.9008 4 32 4C16.5608 4 4 16.5608 4 32C4 34.8448 4.434 37.5916 5.2264 40.1788C5.2292 40.1816 5.2264 40.1872 5.2292 40.19C8.7404 51.6448 19.4112 60 32 60C32.1876 60 32.3668 59.9748 32.5544 59.972C32.6048 59.9748 32.6496 60 32.7 60C32.7868 60 32.8652 59.958 32.9492 59.9524C47.9488 59.4456 60 47.1172 60 32C60 29.0908 58.7008 26.5008 56.6792 24.706ZM41.7832 13.9764C45.4148 15.6592 48.3576 18.5908 50.0376 22.2168C44.7092 22.3064 40.4 26.652 40.4 32C40.4 36.6312 36.6312 40.4 32 40.4C27.3688 40.4 23.6 36.6312 23.6 32C23.6 27.3688 27.3688 23.6 32 23.6C37.3424 23.6 41.6852 19.2964 41.7832 13.9764ZM32 9.6C34.3184 9.6 36.2 11.4788 36.2 13.8C36.2 16.1212 34.3184 18 32 18C31.3616 18 29.5304 18 29.2 18C21.7856 18 16.0372 20.2568 12.1088 24.7032C11.3108 25.6076 10.6332 26.5624 10.048 27.5424C12.1228 17.3196 21.1752 9.6 32 9.6ZM40.9628 52.5156C41.3492 52.1348 41.7216 51.7484 42.0688 51.3396C45.7984 46.938 46 40.4 46 34.8C46 34.646 46 32.6608 46 32C46 29.6816 47.8816 27.8 50.2 27.8C52.5184 27.8 54.4 29.6816 54.4 32C54.4 41.1644 48.8616 49.0492 40.9628 52.5156Z" fill="#F1F1FA"/>
</svg>
