<svg width="64" height="64" viewBox="0 0 64 64" fill="none" xmlns="http://www.w3.org/2000/svg">
<path d="M43.6269 6.00396C42.6781 5.97151 41.685 6.13974 40.6892 6.46806C38.6978 7.1247 36.611 8.40433 34.4694 10.1761C33.6301 10.8704 32.7832 11.6641 31.9335 12.5063C31.1024 11.6855 30.2729 10.9107 29.4522 10.2317C27.3123 8.46135 25.2311 7.18364 23.2442 6.52849C21.2573 5.87334 19.2803 5.85304 17.6566 6.80647C16.0328 7.75991 15.0619 9.5101 14.6263 11.5877C14.1907 13.6654 14.2363 16.1396 14.6738 18.9095C14.8258 19.8716 15.0449 20.881 15.2917 21.9093C14.364 22.1952 13.463 22.4959 12.6275 22.8278C10.106 23.8294 8.0196 25.0277 6.5003 26.4537C4.981 27.8796 4 29.6102 4 31.5105C4 33.4108 4.981 35.139 6.5003 36.5649C8.0196 37.9908 10.106 39.1915 12.6275 40.1931C13.5208 40.548 14.4881 40.8676 15.4866 41.1697C15.1275 42.5346 14.8365 43.8591 14.6381 45.1146C14.2003 47.8868 14.154 50.3613 14.5906 52.4436C15.0272 54.526 15.9987 56.2861 17.6304 57.2442C19.2622 58.2024 21.248 58.1788 23.2395 57.5222C25.2309 56.8656 27.3153 55.5884 29.4569 53.8166C30.2885 53.1287 31.1296 52.3439 31.9715 51.5106C32.8173 52.3484 33.6627 53.1377 34.4979 53.8287C36.6378 55.599 38.7213 56.8767 40.7083 57.5319C42.6952 58.187 44.6698 58.2073 46.2935 57.2539C47.9172 56.3005 48.8882 54.5503 49.3238 52.4726C49.7594 50.395 49.7114 47.9208 49.2739 45.1509C49.0751 43.8919 48.7839 42.5655 48.4231 41.1963C49.4546 40.8868 50.4524 40.5587 51.3725 40.1931C53.894 39.1915 55.9804 37.9908 57.4997 36.5649C59.019 35.139 60 33.4108 60 31.5105C60 29.6102 59.019 27.8796 57.4997 26.4537C55.9804 25.0277 53.894 23.8294 51.3725 22.8278C50.5251 22.4912 49.6102 22.1866 48.6679 21.8972C48.9167 20.8626 49.1377 19.846 49.2906 18.8781C49.7284 16.1059 49.7747 13.629 49.3381 11.5466C48.9015 9.4643 47.9276 7.70661 46.2959 6.74846C45.48 6.26939 44.5756 6.0364 43.6269 6.00396ZM43.5152 8.5227C44.1105 8.53926 44.6184 8.68335 45.0529 8.93846C45.9218 9.44868 46.5641 10.4417 46.9067 12.076C47.2494 13.7103 47.2375 15.9185 46.833 18.4792C46.6945 19.356 46.4935 20.2852 46.265 21.2373C43.7766 20.6282 41.0499 20.176 38.1438 19.9102C36.6839 17.853 35.1833 15.9816 33.6708 14.3192C34.4705 13.5253 35.265 12.7828 36.0404 12.1413C38.0187 10.5046 39.8916 9.39097 41.4545 8.87562C42.236 8.61794 42.9198 8.50614 43.5152 8.5227ZM20.4231 8.52995C21.0219 8.51295 21.7071 8.62445 22.4908 8.88287C24.0583 9.39971 25.9344 10.5129 27.9144 12.151C28.6741 12.7795 29.4512 13.5058 30.2341 14.2805C28.7107 15.9561 27.1996 17.8471 25.7302 19.9223C22.8345 20.193 20.1175 20.6495 17.6399 21.2615C17.4129 20.3139 17.2145 19.3884 17.0766 18.5155C16.6718 15.9525 16.6617 13.7416 17.0053 12.1026C17.349 10.4636 17.9965 9.46548 18.8734 8.95055C19.3119 8.69308 19.8242 8.54695 20.4231 8.52995ZM31.9715 16.1007C32.9626 17.1977 33.9544 18.3986 34.9376 19.6903C33.9714 19.6493 32.9933 19.625 32 19.625C30.9869 19.625 29.9902 19.6501 29.0053 19.6927C29.9889 18.3998 30.98 17.1987 31.9715 16.1007ZM32 22.1244C33.6548 22.1244 35.2677 22.1936 36.8366 22.3105C37.9161 23.8875 38.971 25.5604 39.9762 27.3311C40.8595 28.887 41.6587 30.4405 42.3862 31.9746C41.6511 33.5291 40.8384 35.1036 39.943 36.6809C39.1547 38.0694 38.3316 39.3882 37.4949 40.6597C35.7228 40.8103 33.8865 40.8941 32 40.8941C30.0681 40.8941 28.1905 40.8053 26.3791 40.6476C25.5563 39.3944 24.7471 38.0932 23.9715 36.7268C23.0781 35.1531 22.2694 33.5839 21.5354 32.0326C22.2724 30.4725 23.0848 28.8922 23.9834 27.3094C24.9833 25.5479 26.0351 23.8847 27.1087 22.3154C28.6945 22.1958 30.3261 22.1244 32 22.1244ZM39.9715 22.6199C41.9766 22.8745 43.8592 23.2281 45.6114 23.6521C45.0913 25.3862 44.4506 27.1975 43.6744 29.0667C43.1704 28.0785 42.6484 27.087 42.0844 26.0935C41.4012 24.8901 40.6909 23.741 39.9715 22.6199ZM23.9002 22.6393C23.1955 23.7399 22.5021 24.8655 21.8324 26.0451C21.2612 27.0514 20.7284 28.0563 20.2187 29.057C19.4491 27.199 18.8123 25.398 18.2959 23.6739C20.0357 23.2489 21.9082 22.8967 23.9002 22.6393ZM48.019 24.3096C48.8816 24.575 49.7147 24.8521 50.4789 25.1556C52.8033 26.0789 54.642 27.1723 55.8336 28.2907C57.0253 29.4092 57.5425 30.4758 57.5425 31.5105C57.5425 32.5452 57.0253 33.6118 55.8336 34.7302C54.642 35.8487 52.8033 36.942 50.4789 37.8654C49.6297 38.2027 48.6967 38.5086 47.7267 38.7984C47.0347 36.6217 46.1515 34.3508 45.1004 32.0326C46.309 29.3711 47.2853 26.776 48.019 24.3096ZM15.9406 24.3217C16.6659 26.7634 17.6297 29.3328 18.8212 31.9673C17.7631 34.2991 16.8756 36.5829 16.1806 38.7718C15.2448 38.4896 14.3434 38.192 13.5211 37.8654C11.1967 36.942 9.35804 35.8487 8.16637 34.7302C6.9747 33.6118 6.45752 32.5452 6.45752 31.5105C6.45752 30.4758 6.9747 29.4092 8.16637 28.2907C9.35804 27.1723 11.1967 26.0789 13.5211 25.1556C14.2735 24.8567 15.0926 24.5836 15.9406 24.3217ZM32 25.8252C28.6541 25.8252 25.9156 28.6103 25.9156 32.0133C25.9156 35.4162 28.6541 38.2014 32 38.2014C35.3459 38.2014 38.0844 35.4162 38.0844 32.0133C38.0844 28.6103 35.3459 25.8252 32 25.8252ZM32 28.3004C34.0306 28.3004 35.6506 29.9481 35.6506 32.0133C35.6506 34.0785 34.0306 35.7261 32 35.7261C29.9694 35.7261 28.3494 34.0785 28.3494 32.0133C28.3494 29.9481 29.9694 28.3004 32 28.3004ZM43.7053 34.9381C44.3435 36.4743 44.8982 37.9774 45.3642 39.4269C43.9008 39.772 42.3426 40.0628 40.7035 40.2923C41.1753 39.5266 41.6413 38.7466 42.0963 37.9451C42.6666 36.9405 43.1963 35.9371 43.7053 34.9381ZM20.2472 34.9405C20.7589 35.9457 21.2918 36.9535 21.8657 37.9645C22.315 38.7559 22.7737 39.5285 23.2395 40.285C21.6052 40.0545 20.0518 39.7627 18.593 39.4172C19.0569 37.9722 19.6119 36.4722 20.2472 34.9405ZM17.8919 41.8199C20.0942 42.3506 22.4813 42.7582 25.0125 43.0237C26.7025 45.5098 28.4622 47.7425 30.2341 49.6952C29.4419 50.4808 28.6567 51.2181 27.8883 51.8538C25.91 53.4905 24.0347 54.6017 22.4718 55.1171C20.9088 55.6324 19.7424 55.5644 18.8734 55.0542C18.0045 54.544 17.3646 53.551 17.022 51.9167C16.6793 50.2824 16.6888 48.0767 17.0933 45.5159C17.2768 44.3542 17.551 43.1102 17.8919 41.8199ZM46.0677 41.8296C46.4112 43.1271 46.6866 44.3768 46.8711 45.5449C47.2759 48.1079 47.286 50.3163 46.9424 51.9553C46.5987 53.5944 45.9536 54.5949 45.0766 55.1098C44.1997 55.6248 43.0244 55.6944 41.4569 55.1775C39.8895 54.6607 38.0133 53.5451 36.0333 51.907C35.2593 51.2667 34.4687 50.5259 33.6708 49.7339C35.4543 47.7738 37.227 45.529 38.9281 43.0285C41.4657 42.7648 43.8594 42.3596 46.0677 41.8296ZM28.1878 43.2775C29.4372 43.3468 30.7031 43.3935 32 43.3935C33.254 43.3935 34.4788 43.3496 35.6887 43.2848C34.452 44.9818 33.1914 46.5245 31.9358 47.9138C30.6811 46.5216 29.4228 44.976 28.1878 43.2775Z" fill="#F1F1FA"/>
</svg>
