<svg width="64" height="64" viewBox="0 0 64 64" fill="none" xmlns="http://www.w3.org/2000/svg">
<path fill-rule="evenodd" clip-rule="evenodd" d="M15.8542 7.625H48.1458C53.0417 7.625 57 11.5833 57 16.4792V47.5208C57 52.4167 53.0417 56.375 48.1458 56.375H15.8542C10.9583 56.375 7 52.4167 7 47.5208V16.4792C7 11.5833 10.9583 7.625 15.8542 7.625ZM33.2708 42.0625H37.625C37.8333 42.0625 37.8958 41.9583 37.8333 41.7292L30.2292 20.2708C30.2083 20.1667 30.125 20.1042 29.9583 20.1042H24.625H24.5625C24.4583 20.125 24.375 20.2292 24.3958 20.3333C24.3958 20.7917 24.3542 21.25 24.2708 21.6875C24.2118 21.8646 24.1632 22.0313 24.1177 22.1875C24.0989 22.2518 24.0807 22.3143 24.0625 22.375L17.3542 41.6875C17.2917 41.9375 17.3542 42.0625 17.5833 42.0625H21.5C21.6875 42.0833 21.8542 41.9583 21.8958 41.7708L23.4792 36.875H31.2292L32.9375 41.8333C32.9792 41.9792 33.125 42.0833 33.2708 42.0625ZM44.4375 42.0833C44.625 42.0833 44.7083 41.9792 44.7083 41.75V25.7083C44.7083 25.5208 44.625 25.4167 44.4375 25.4167H40.3125C40.125 25.4167 40.0417 25.5 40.0417 25.7083V41.75C40.0417 41.9583 40.1458 42.0833 40.3542 42.0833H44.4375ZM42.375 23.6667C43.0833 23.7083 43.7917 23.4375 44.2708 22.9375C44.7708 22.4167 45.0208 21.7292 45 21.0208C45.0208 20.3333 44.7708 19.6667 44.3125 19.1667C43.8542 18.6875 43.2292 18.4375 42.4167 18.4375C41.7292 18.4375 41.0625 18.6875 40.5625 19.1667C40.0625 19.6458 39.7917 20.3125 39.8125 21.0208C39.7917 21.7292 40.0417 22.4167 40.5208 22.9375C41.0208 23.4167 41.6875 23.6875 42.375 23.6667ZM28.6355 28.3954C28.7344 28.7132 28.8334 29.0309 28.9376 29.3538C29.1251 29.9788 29.3126 30.583 29.5001 31.1455C29.6876 31.6872 29.8542 32.208 29.9792 32.6455H24.6876C25.0001 31.7705 25.3126 30.7913 25.6042 29.7288C25.8106 29.0839 26.009 28.439 26.2044 27.804C26.3245 27.4133 26.4436 27.0264 26.5626 26.6455C26.8542 25.7497 27.0834 24.8538 27.2709 23.958H27.3126C27.3939 24.2367 27.4752 24.5284 27.5601 24.833C27.6275 25.0748 27.6972 25.3248 27.7709 25.583C27.9376 26.1872 28.1251 26.7913 28.3334 27.4372C28.4376 27.7601 28.5365 28.0778 28.6355 28.3954Z" fill="#F1F1FA"/>
</svg>
