<svg width="24" height="24" viewBox="0 0 24 24" fill="none" xmlns="http://www.w3.org/2000/svg">
<path d="M12 11.9766C10.9 11.9766 10 11.6266 9.3 10.9266C8.6 10.2266 8.25 9.32656 8.25 8.22656C8.25 7.12656 8.6 6.22656 9.3 5.52656C10 4.82656 10.9 4.47656 12 4.47656C13.1 4.47656 14 4.82656 14.7 5.52656C15.4 6.22656 15.75 7.12656 15.75 8.22656C15.75 9.32656 15.4 10.2266 14.7 10.9266C14 11.6266 13.1 11.9766 12 11.9766V11.9766ZM4 20.0016V17.6516C4 17.0182 4.15833 16.4766 4.475 16.0266C4.79167 15.5766 5.2 15.2349 5.7 15.0016C6.81667 14.5016 7.8875 14.1266 8.9125 13.8766C9.9375 13.6266 10.9667 13.5016 12 13.5016C13.0333 13.5016 14.0583 13.6307 15.075 13.8891C16.0917 14.1474 17.1583 14.5182 18.275 15.0016C18.7917 15.2349 19.2083 15.5766 19.525 16.0266C19.8417 16.4766 20 17.0182 20 17.6516V20.0016H4ZM5.5 18.5016H18.5V17.6516C18.5 17.3849 18.4208 17.1307 18.2625 16.8891C18.1042 16.6474 17.9083 16.4682 17.675 16.3516C16.6083 15.8349 15.6333 15.4807 14.75 15.2891C13.8667 15.0974 12.95 15.0016 12 15.0016C11.05 15.0016 10.125 15.0974 9.225 15.2891C8.325 15.4807 7.35 15.8349 6.3 16.3516C6.06667 16.4682 5.875 16.6474 5.725 16.8891C5.575 17.1307 5.5 17.3849 5.5 17.6516V18.5016ZM12 10.4766C12.65 10.4766 13.1875 10.2641 13.6125 9.83906C14.0375 9.41406 14.25 8.87656 14.25 8.22656C14.25 7.57656 14.0375 7.03906 13.6125 6.61406C13.1875 6.18906 12.65 5.97656 12 5.97656C11.35 5.97656 10.8125 6.18906 10.3875 6.61406C9.9625 7.03906 9.75 7.57656 9.75 8.22656C9.75 8.87656 9.9625 9.41406 10.3875 9.83906C10.8125 10.2641 11.35 10.4766 12 10.4766Z" fill="#F1F1FA"/>
</svg>
