<svg width="20" height="20" viewBox="0 0 20 20" fill="none" xmlns="http://www.w3.org/2000/svg">
<path d="M16.5625 17.5C14.8681 17.5 13.184 17.0868 11.5104 16.2604C9.83681 15.434 8.33333 14.3542 7 13.0208C5.66667 11.6875 4.58333 10.1806 3.75 8.5C2.91667 6.81944 2.5 5.13194 2.5 3.4375C2.5 3.28472 2.50694 3.125 2.52083 2.95833C2.53472 2.79167 2.55556 2.63889 2.58333 2.5H7L7.83333 6.4375L5.39583 8.89583C6.17361 10.1875 7.04514 11.3125 8.01042 12.2708C8.97569 13.2292 10.0694 14.0417 11.2917 14.7083L13.7292 12.1875L17.5 13.0208V17.4375C17.3611 17.4514 17.2083 17.4653 17.0417 17.4792C16.875 17.4931 16.7153 17.5 16.5625 17.5V17.5ZM4.77083 7.75L6.45833 6.04167L5.97917 3.75H3.75C3.75 4.29167 3.83333 4.88542 4 5.53125C4.16667 6.17708 4.42361 6.91667 4.77083 7.75ZM12.4583 15.3125C13.0278 15.5764 13.6458 15.7917 14.3125 15.9583C14.9792 16.125 15.625 16.2222 16.25 16.25V14.0208L14.1042 13.5833L12.4583 15.3125Z" fill="#BBBCDE"/>
</svg>
