<svg width="20" height="20" viewBox="0 0 20 20" fill="none" xmlns="http://www.w3.org/2000/svg">
<path d="M8.18783 13.3346H11.792C11.9864 13.3346 12.1288 13.2687 12.2191 13.1367C12.3094 13.0048 12.3545 12.8416 12.3545 12.6471V11.1263H11.1045V12.0846H8.87533V7.91797H11.1045V8.89714H12.3545V7.3763C12.3545 7.18186 12.3094 7.01519 12.2191 6.8763C12.1288 6.73741 11.9864 6.66797 11.792 6.66797H8.18783C7.99338 6.66797 7.85102 6.73741 7.76074 6.8763C7.67046 7.01519 7.62533 7.18186 7.62533 7.3763V12.6471C7.62533 12.8416 7.67046 13.0048 7.76074 13.1367C7.85102 13.2687 7.99338 13.3346 8.18783 13.3346ZM10.0003 18.3346C8.81977 18.3346 7.72255 18.1228 6.70866 17.6992C5.69477 17.2756 4.81283 16.6888 4.06283 15.9388C3.31283 15.1888 2.72602 14.3069 2.30241 13.293C1.8788 12.2791 1.66699 11.1819 1.66699 10.0013C1.66699 8.83464 1.8788 7.74436 2.30241 6.73047C2.72602 5.71658 3.31283 4.83464 4.06283 4.08464C4.81283 3.33464 5.69477 2.74436 6.70866 2.3138C7.72255 1.88325 8.81977 1.66797 10.0003 1.66797C11.167 1.66797 12.2573 1.88325 13.2712 2.3138C14.285 2.74436 15.167 3.33464 15.917 4.08464C16.667 4.83464 17.2573 5.71658 17.6878 6.73047C18.1184 7.74436 18.3337 8.83464 18.3337 10.0013C18.3337 11.1819 18.1184 12.2791 17.6878 13.293C17.2573 14.3069 16.667 15.1888 15.917 15.9388C15.167 16.6888 14.285 17.2756 13.2712 17.6992C12.2573 18.1228 11.167 18.3346 10.0003 18.3346ZM10.0003 17.0846C12.0142 17.0846 13.6982 16.4076 15.0524 15.0534C16.4066 13.6992 17.0837 12.0152 17.0837 10.0013C17.0837 7.98741 16.4066 6.30339 15.0524 4.94922C13.6982 3.59505 12.0142 2.91797 10.0003 2.91797C7.98644 2.91797 6.30241 3.59505 4.94824 4.94922C3.59408 6.30339 2.91699 7.98741 2.91699 10.0013C2.91699 12.0152 3.59408 13.6992 4.94824 15.0534C6.30241 16.4076 7.98644 17.0846 10.0003 17.0846Z" fill="#BBBCDE"/>
</svg>
