<svg width="20" height="20" viewBox="0 0 20 20" fill="none" xmlns="http://www.w3.org/2000/svg">
<path d="M13.0628 14.0221L14.0003 13.0846L10.6878 9.7513V5.5638H9.43783V10.2513L13.0628 14.0221ZM10.0003 18.3346C8.86144 18.3346 7.78505 18.1159 6.77116 17.6784C5.75727 17.2409 4.87185 16.6437 4.11491 15.8867C3.35796 15.1298 2.76074 14.2444 2.32324 13.2305C1.88574 12.2166 1.66699 11.1402 1.66699 10.0013C1.66699 8.86241 1.88574 7.78602 2.32324 6.77214C2.76074 5.75825 3.35796 4.87283 4.11491 4.11589C4.87185 3.35894 5.75727 2.76172 6.77116 2.32422C7.78505 1.88672 8.86144 1.66797 10.0003 1.66797C11.1392 1.66797 12.2156 1.88672 13.2295 2.32422C14.2434 2.76172 15.1288 3.35894 15.8857 4.11589C16.6427 4.87283 17.2399 5.75825 17.6774 6.77214C18.1149 7.78602 18.3337 8.86241 18.3337 10.0013C18.3337 11.1402 18.1149 12.2166 17.6774 13.2305C17.2399 14.2444 16.6427 15.1298 15.8857 15.8867C15.1288 16.6437 14.2434 17.2409 13.2295 17.6784C12.2156 18.1159 11.1392 18.3346 10.0003 18.3346ZM10.0003 17.0846C11.9448 17.0846 13.6114 16.3902 15.0003 15.0013C16.3892 13.6124 17.0837 11.9457 17.0837 10.0013C17.0837 8.05686 16.3892 6.39019 15.0003 5.0013C13.6114 3.61241 11.9448 2.91797 10.0003 2.91797C8.05588 2.91797 6.38921 3.61241 5.00033 5.0013C3.61144 6.39019 2.91699 8.05686 2.91699 10.0013C2.91699 11.9457 3.61144 13.6124 5.00033 15.0013C6.38921 16.3902 8.05588 17.0846 10.0003 17.0846Z" fill="#BBBCDE"/>
</svg>
