<svg width="64" height="64" viewBox="0 0 64 64" fill="none" xmlns="http://www.w3.org/2000/svg">
<path d="M5 37.5371H11.8726V38.9943C11.8726 40.7429 13.3453 42.2 15.1126 42.2H18.4016C20.4143 42.2 21.6906 41.0343 21.6906 39.48C21.6906 33.9914 5.4909 33.9429 5.4909 24.0343C5.4909 18.74 9.76174 15 15.6035 15H17.9107C23.507 15 28.0723 19.4686 28.0723 25.0057V25.9771H21.1997V25.0057C21.1997 23.2571 19.727 21.8 17.9107 21.8H15.6035C13.4435 21.8 12.3635 22.6743 12.3635 24.0343C12.3635 27.3857 28.5632 29.1343 28.5632 39.48C28.5632 44.8714 24.1451 49 18.4016 49H15.1126C9.51629 49 5 44.5314 5 38.9943V37.5371Z" fill="#F1F1FA"/>
<path d="M48.182 15C53.5819 15 58 19.3714 58 24.7143V39.2371C58 44.58 53.5819 49 48.182 49H34.4368V15H48.182ZM51.1274 39.2371V24.7143C51.1274 23.1114 49.8511 21.8 48.182 21.8H41.3094V42.1514H48.182C49.802 42.1514 51.1274 40.84 51.1274 39.2371Z" fill="#F1F1FA"/>
</svg>
